<svg width="164" height="38" viewBox="0 0 164 38" fill="none" xmlns="http://www.w3.org/2000/svg">
<g filter="url(#filter0_dd_288_1604)">
<rect x="3.1" y="2.1" width="31.8" height="31.8" rx="7.9" fill="white"/>
<rect x="3.1" y="2.1" width="31.8" height="31.8" rx="7.9" fill="url(#paint0_linear_288_1604)"/>
<rect x="3.1" y="2.1" width="31.8" height="31.8" rx="7.9" stroke="#D0D5DD" stroke-width="0.2"/>
<g clip-path="url(#clip0_288_1604)">
<path d="M29.191 16.0324L24.1043 20.2712L21.561 22.3906L13.708 15.8464L16.2513 13.727L21.3379 9.48814C23.5065 7.68104 27.0224 7.68104 29.191 9.48814C31.3595 11.2953 31.3595 14.2252 29.191 16.0324Z" fill="url(#paint1_linear_288_1604)"/>
<path d="M21.7866 22.1917L21.7936 22.1975L16.707 26.4364C14.5385 28.2436 11.0225 28.2436 8.85397 26.4364C6.68539 24.6293 6.68539 21.6993 8.85397 19.8922L13.9406 15.6534L13.9476 15.6592C16.1282 14.0419 19.4712 14.1041 21.562 15.8464C23.6527 17.5887 23.7274 20.3745 21.7866 22.1917Z" fill="url(#paint2_linear_288_1604)"/>
<path d="M12.7801 21.1542C12.3925 21.1542 12.0049 21.031 11.7092 20.7846C11.1178 20.2917 11.1178 19.4926 11.7092 18.9997L15.1969 16.0933C15.7883 15.6004 16.7473 15.6004 17.3387 16.0933C17.9302 16.5862 17.9302 17.3853 17.3387 17.8781L13.851 20.7846C13.5554 21.031 13.1677 21.1542 12.7801 21.1542Z" fill="#66B3E4" fill-opacity="0.47"/>
</g>
</g>
<path d="M46.728 28V10.12H49.848L56.544 19.216H55.056L61.608 10.12H64.728V28H61.44V13.84L62.712 14.152L55.92 23.2H55.536L48.912 14.152L49.992 13.84V28H46.728ZM74.0779 28.288C72.7339 28.288 71.5579 27.984 70.5499 27.376C69.5419 26.768 68.7579 25.944 68.1979 24.904C67.6379 23.864 67.3579 22.712 67.3579 21.448C67.3579 20.136 67.6379 18.976 68.1979 17.968C68.7739 16.944 69.5499 16.136 70.5259 15.544C71.5179 14.952 72.6219 14.656 73.8379 14.656C74.8619 14.656 75.7579 14.824 76.5259 15.16C77.3099 15.496 77.9739 15.96 78.5179 16.552C79.0619 17.144 79.4779 17.824 79.7659 18.592C80.0539 19.344 80.1979 20.16 80.1979 21.04C80.1979 21.264 80.1819 21.496 80.1499 21.736C80.1339 21.976 80.0939 22.184 80.0299 22.36H69.9499V19.96H78.2539L76.7659 21.088C76.9099 20.352 76.8699 19.696 76.6459 19.12C76.4379 18.544 76.0859 18.088 75.5899 17.752C75.1099 17.416 74.5259 17.248 73.8379 17.248C73.1819 17.248 72.5979 17.416 72.0859 17.752C71.5739 18.072 71.1819 18.552 70.9099 19.192C70.6539 19.816 70.5579 20.576 70.6219 21.472C70.5579 22.272 70.6619 22.984 70.9339 23.608C71.2219 24.216 71.6379 24.688 72.1819 25.024C72.7419 25.36 73.3819 25.528 74.1019 25.528C74.8219 25.528 75.4299 25.376 75.9259 25.072C76.4379 24.768 76.8379 24.36 77.1259 23.848L79.6699 25.096C79.4139 25.72 79.0139 26.272 78.4699 26.752C77.9259 27.232 77.2779 27.608 76.5259 27.88C75.7899 28.152 74.9739 28.288 74.0779 28.288ZM88.6532 28.288C87.3892 28.288 86.2612 27.992 85.2692 27.4C84.2772 26.792 83.4932 25.968 82.9172 24.928C82.3412 23.888 82.0532 22.736 82.0532 21.472C82.0532 20.192 82.3412 19.04 82.9172 18.016C83.4932 16.992 84.2772 16.176 85.2692 15.568C86.2772 14.96 87.3972 14.656 88.6292 14.656C89.6212 14.656 90.5012 14.856 91.2692 15.256C92.0532 15.64 92.6692 16.184 93.1172 16.888L92.6372 17.536V9.832H95.7812V28H92.8052V25.48L93.1412 26.104C92.6932 26.808 92.0692 27.352 91.2692 27.736C90.4692 28.104 89.5972 28.288 88.6532 28.288ZM88.9892 25.408C89.7092 25.408 90.3412 25.24 90.8852 24.904C91.4292 24.568 91.8532 24.104 92.1572 23.512C92.4772 22.92 92.6372 22.24 92.6372 21.472C92.6372 20.72 92.4772 20.048 92.1572 19.456C91.8532 18.848 91.4292 18.376 90.8852 18.04C90.3412 17.704 89.7092 17.536 88.9892 17.536C88.2852 17.536 87.6532 17.712 87.0932 18.064C86.5332 18.4 86.0932 18.864 85.7732 19.456C85.4692 20.032 85.3172 20.704 85.3172 21.472C85.3172 22.24 85.4692 22.92 85.7732 23.512C86.0932 24.104 86.5332 24.568 87.0932 24.904C87.6532 25.24 88.2852 25.408 88.9892 25.408ZM98.7062 28V14.944H101.85V28H98.7062ZM98.7062 13.48V10.12H101.85V13.48H98.7062ZM111.041 28.288C109.745 28.288 108.577 27.992 107.537 27.4C106.513 26.792 105.705 25.976 105.113 24.952C104.521 23.912 104.225 22.744 104.225 21.448C104.225 20.152 104.521 18.992 105.113 17.968C105.705 16.944 106.513 16.136 107.537 15.544C108.577 14.952 109.745 14.656 111.041 14.656C111.969 14.656 112.833 14.824 113.633 15.16C114.433 15.48 115.121 15.928 115.697 16.504C116.289 17.064 116.713 17.736 116.969 18.52L114.209 19.72C113.969 19.064 113.561 18.536 112.985 18.136C112.425 17.736 111.777 17.536 111.041 17.536C110.353 17.536 109.737 17.704 109.193 18.04C108.665 18.376 108.249 18.84 107.945 19.432C107.641 20.024 107.489 20.704 107.489 21.472C107.489 22.24 107.641 22.92 107.945 23.512C108.249 24.104 108.665 24.568 109.193 24.904C109.737 25.24 110.353 25.408 111.041 25.408C111.793 25.408 112.449 25.208 113.009 24.808C113.569 24.408 113.969 23.872 114.209 23.2L116.969 24.448C116.713 25.184 116.297 25.848 115.721 26.44C115.145 27.016 114.457 27.472 113.657 27.808C112.857 28.128 111.985 28.288 111.041 28.288ZM125.739 28.288C124.459 28.288 123.291 27.992 122.235 27.4C121.195 26.808 120.363 26 119.739 24.976C119.131 23.952 118.827 22.784 118.827 21.472C118.827 20.16 119.131 18.992 119.739 17.968C120.363 16.944 121.195 16.136 122.235 15.544C123.275 14.952 124.443 14.656 125.739 14.656C127.019 14.656 128.179 14.952 129.219 15.544C130.259 16.136 131.083 16.944 131.691 17.968C132.315 18.976 132.627 20.144 132.627 21.472C132.627 22.784 132.315 23.952 131.691 24.976C131.067 26 130.235 26.808 129.195 27.4C128.155 27.992 127.003 28.288 125.739 28.288ZM125.739 25.408C126.443 25.408 127.059 25.24 127.587 24.904C128.131 24.568 128.555 24.104 128.859 23.512C129.179 22.904 129.339 22.224 129.339 21.472C129.339 20.704 129.179 20.032 128.859 19.456C128.555 18.864 128.131 18.4 127.587 18.064C127.059 17.712 126.443 17.536 125.739 17.536C125.019 17.536 124.387 17.712 123.843 18.064C123.299 18.4 122.867 18.864 122.547 19.456C122.243 20.032 122.091 20.704 122.091 21.472C122.091 22.224 122.243 22.904 122.547 23.512C122.867 24.104 123.299 24.568 123.843 24.904C124.387 25.24 125.019 25.408 125.739 25.408Z" fill="white"/>
<defs>
<filter id="filter0_dd_288_1604" x="0" y="0" width="38" height="38" filterUnits="userSpaceOnUse" color-interpolation-filters="sRGB">
<feFlood flood-opacity="0" result="BackgroundImageFix"/>
<feColorMatrix in="SourceAlpha" type="matrix" values="0 0 0 0 0 0 0 0 0 0 0 0 0 0 0 0 0 0 127 0" result="hardAlpha"/>
<feOffset dy="1"/>
<feGaussianBlur stdDeviation="1"/>
<feColorMatrix type="matrix" values="0 0 0 0 0.0627451 0 0 0 0 0.0941176 0 0 0 0 0.156863 0 0 0 0.06 0"/>
<feBlend mode="normal" in2="BackgroundImageFix" result="effect1_dropShadow_288_1604"/>
<feColorMatrix in="SourceAlpha" type="matrix" values="0 0 0 0 0 0 0 0 0 0 0 0 0 0 0 0 0 0 127 0" result="hardAlpha"/>
<feOffset dy="1"/>
<feGaussianBlur stdDeviation="1.5"/>
<feColorMatrix type="matrix" values="0 0 0 0 0.0627451 0 0 0 0 0.0941176 0 0 0 0 0.156863 0 0 0 0.1 0"/>
<feBlend mode="normal" in2="effect1_dropShadow_288_1604" result="effect2_dropShadow_288_1604"/>
<feBlend mode="normal" in="SourceGraphic" in2="effect2_dropShadow_288_1604" result="shape"/>
</filter>
<linearGradient id="paint0_linear_288_1604" x1="19" y1="2" x2="19" y2="34" gradientUnits="userSpaceOnUse">
<stop stop-color="white"/>
<stop offset="1" stop-color="#D0D5DD"/>
</linearGradient>
<linearGradient id="paint1_linear_288_1604" x1="22.2627" y1="8.13281" x2="22.2627" y2="22.3906" gradientUnits="userSpaceOnUse">
<stop stop-color="#00A482"/>
<stop offset="1" stop-color="#79DD83"/>
</linearGradient>
<linearGradient id="paint2_linear_288_1604" x1="15.2079" y1="14.4912" x2="15.2079" y2="27.7918" gradientUnits="userSpaceOnUse">
<stop stop-color="#0076C1"/>
<stop offset="0.278696" stop-color="#269ED3"/>
<stop offset="0.74" stop-color="#0B82C6"/>
<stop offset="1" stop-color="#36AFDA"/>
</linearGradient>
<clipPath id="clip0_288_1604">
<rect width="24" height="20" fill="white" transform="translate(7 8)"/>
</clipPath>
</defs>
</svg>
