<svg width="142" height="38" viewBox="0 0 142 38" fill="none" xmlns="http://www.w3.org/2000/svg">
<g filter="url(#filter0_dd_0_1)">
<path d="M27 2.10001H11C6.63696 2.10001 3.10001 5.63696 3.10001 10V26C3.10001 30.3631 6.63696 33.9 11 33.9H27C31.3631 33.9 34.9 30.3631 34.9 26V10C34.9 5.63696 31.3631 2.10001 27 2.10001Z" fill="white"/>
<path d="M27 2.10001H11C6.63696 2.10001 3.10001 5.63696 3.10001 10V26C3.10001 30.3631 6.63696 33.9 11 33.9H27C31.3631 33.9 34.9 30.3631 34.9 26V10C34.9 5.63696 31.3631 2.10001 27 2.10001Z" fill="url(#paint0_linear_0_1)"/>
<path d="M27 2.10001H11C6.63696 2.10001 3.10001 5.63696 3.10001 10V26C3.10001 30.3631 6.63696 33.9 11 33.9H27C31.3631 33.9 34.9 30.3631 34.9 26V10C34.9 5.63696 31.3631 2.10001 27 2.10001Z" stroke="#D0D5DD" stroke-width="0.2"/>
<mask id="mask0_0_1" style="mask-type:luminance" maskUnits="userSpaceOnUse" x="7" y="8" width="24" height="20">
<path d="M31 8H7V28H31V8Z" fill="white"/>
</mask>
<g mask="url(#mask0_0_1)">
<path d="M29.191 16.0324L24.1043 20.2712L21.561 22.3906L13.708 15.8464L16.2513 13.727L21.3379 9.48814C23.5065 7.68104 27.0224 7.68104 29.191 9.48814C31.3595 11.2953 31.3595 14.2252 29.191 16.0324Z" fill="url(#paint1_linear_0_1)"/>
<path d="M21.7866 22.1917L21.7936 22.1975L16.707 26.4364C14.5385 28.2436 11.0225 28.2436 8.85397 26.4364C6.68539 24.6293 6.68539 21.6993 8.85397 19.8922L13.9406 15.6534L13.9476 15.6592C16.1282 14.0419 19.4712 14.1041 21.562 15.8464C23.6527 17.5887 23.7274 20.3745 21.7866 22.1917Z" fill="url(#paint2_linear_0_1)"/>
<path d="M12.7801 21.1542C12.3925 21.1542 12.0049 21.031 11.7092 20.7846C11.1178 20.2917 11.1178 19.4926 11.7092 18.9997L15.1969 16.0933C15.7883 15.6004 16.7473 15.6004 17.3387 16.0933C17.9302 16.5862 17.9302 17.3853 17.3387 17.8781L13.851 20.7846C13.5554 21.031 13.1677 21.1542 12.7801 21.1542Z" fill="#66B3E4" fill-opacity="0.47"/>
</g>
</g>
<path d="M54.112 27.288C52.976 27.288 51.92 27.08 50.944 26.664C49.984 26.248 49.152 25.672 48.448 24.936C47.76 24.184 47.256 23.312 46.936 22.32L49.648 21.144C50.08 22.168 50.704 22.976 51.52 23.568C52.336 24.144 53.256 24.432 54.28 24.432C54.856 24.432 55.352 24.344 55.768 24.168C56.2 23.976 56.528 23.72 56.752 23.4C56.992 23.08 57.112 22.696 57.112 22.248C57.112 21.72 56.952 21.288 56.632 20.952C56.328 20.6 55.864 20.328 55.24 20.136L51.808 19.032C50.416 18.6 49.368 17.952 48.664 17.088C47.96 16.224 47.608 15.208 47.608 14.04C47.608 13.016 47.856 12.112 48.352 11.328C48.864 10.544 49.568 9.936 50.464 9.504C51.376 9.056 52.416 8.832 53.584 8.832C54.656 8.832 55.64 9.024 56.536 9.408C57.432 9.776 58.2 10.296 58.84 10.968C59.496 11.624 59.984 12.4 60.304 13.296L57.616 14.496C57.264 13.6 56.736 12.912 56.032 12.432C55.328 11.936 54.512 11.688 53.584 11.688C53.04 11.688 52.56 11.784 52.144 11.976C51.728 12.152 51.4 12.408 51.16 12.744C50.936 13.064 50.824 13.448 50.824 13.896C50.824 14.392 50.984 14.832 51.304 15.216C51.624 15.584 52.112 15.872 52.768 16.08L56.056 17.112C57.48 17.576 58.544 18.216 59.248 19.032C59.968 19.848 60.328 20.856 60.328 22.056C60.328 23.08 60.064 23.984 59.536 24.768C59.008 25.552 58.28 26.168 57.352 26.616C56.424 27.064 55.344 27.288 54.112 27.288ZM69.2911 27.288C67.9951 27.288 66.8271 26.992 65.7871 26.4C64.7631 25.792 63.9551 24.976 63.3631 23.952C62.7711 22.912 62.4751 21.744 62.4751 20.448C62.4751 19.152 62.7711 17.992 63.3631 16.968C63.9551 15.944 64.7631 15.136 65.7871 14.544C66.8271 13.952 67.9951 13.656 69.2911 13.656C70.2191 13.656 71.0831 13.824 71.8831 14.16C72.6831 14.48 73.3711 14.928 73.9471 15.504C74.5391 16.064 74.9631 16.736 75.2191 17.52L72.4591 18.72C72.2191 18.064 71.8111 17.536 71.2351 17.136C70.6751 16.736 70.0271 16.536 69.2911 16.536C68.6031 16.536 67.9871 16.704 67.4431 17.04C66.9151 17.376 66.4991 17.84 66.1951 18.432C65.8911 19.024 65.7391 19.704 65.7391 20.472C65.7391 21.24 65.8911 21.92 66.1951 22.512C66.4991 23.104 66.9151 23.568 67.4431 23.904C67.9871 24.24 68.6031 24.408 69.2911 24.408C70.0431 24.408 70.6991 24.208 71.2591 23.808C71.8191 23.408 72.2191 22.872 72.4591 22.2L75.2191 23.448C74.9631 24.184 74.5471 24.848 73.9711 25.44C73.3951 26.016 72.7071 26.472 71.9071 26.808C71.1071 27.128 70.2351 27.288 69.2911 27.288ZM77.6046 27V8.832H80.7486V16.512L80.3166 16.056C80.6206 15.272 81.1166 14.68 81.8046 14.28C82.5086 13.864 83.3246 13.656 84.2526 13.656C85.2126 13.656 86.0606 13.864 86.7966 14.28C87.5486 14.696 88.1326 15.28 88.5486 16.032C88.9646 16.768 89.1726 17.624 89.1726 18.6V27H86.0286V19.344C86.0286 18.768 85.9166 18.272 85.6926 17.856C85.4686 17.44 85.1566 17.12 84.7566 16.896C84.3726 16.656 83.9166 16.536 83.3886 16.536C82.8766 16.536 82.4206 16.656 82.0206 16.896C81.6206 17.12 81.3086 17.44 81.0846 17.856C80.8606 18.272 80.7486 18.768 80.7486 19.344V27H77.6046ZM98.0232 27.288C96.6792 27.288 95.5032 26.984 94.4952 26.376C93.4872 25.768 92.7032 24.944 92.1432 23.904C91.5832 22.864 91.3032 21.712 91.3032 20.448C91.3032 19.136 91.5832 17.976 92.1432 16.968C92.7192 15.944 93.4952 15.136 94.4712 14.544C95.4632 13.952 96.5672 13.656 97.7832 13.656C98.8072 13.656 99.7032 13.824 100.471 14.16C101.255 14.496 101.919 14.96 102.463 15.552C103.007 16.144 103.423 16.824 103.711 17.592C103.999 18.344 104.143 19.16 104.143 20.04C104.143 20.264 104.127 20.496 104.095 20.736C104.079 20.976 104.039 21.184 103.975 21.36H93.8952V18.96H102.199L100.711 20.088C100.855 19.352 100.815 18.696 100.591 18.12C100.383 17.544 100.031 17.088 99.5352 16.752C99.0552 16.416 98.4712 16.248 97.7832 16.248C97.1272 16.248 96.5432 16.416 96.0312 16.752C95.5192 17.072 95.1272 17.552 94.8552 18.192C94.5992 18.816 94.5032 19.576 94.5672 20.472C94.5032 21.272 94.6072 21.984 94.8792 22.608C95.1672 23.216 95.5832 23.688 96.1272 24.024C96.6872 24.36 97.3272 24.528 98.0472 24.528C98.7672 24.528 99.3752 24.376 99.8712 24.072C100.383 23.768 100.783 23.36 101.071 22.848L103.615 24.096C103.359 24.72 102.959 25.272 102.415 25.752C101.871 26.232 101.223 26.608 100.471 26.88C99.7352 27.152 98.9192 27.288 98.0232 27.288ZM112.599 27.288C111.335 27.288 110.207 26.992 109.215 26.4C108.223 25.792 107.439 24.968 106.863 23.928C106.287 22.888 105.999 21.736 105.999 20.472C105.999 19.192 106.287 18.04 106.863 17.016C107.439 15.992 108.223 15.176 109.215 14.568C110.223 13.96 111.343 13.656 112.575 13.656C113.567 13.656 114.447 13.856 115.215 14.256C115.999 14.64 116.615 15.184 117.062 15.888L116.583 16.536V8.832H119.727V27H116.751V24.48L117.087 25.104C116.639 25.808 116.015 26.352 115.215 26.736C114.415 27.104 113.543 27.288 112.599 27.288ZM112.935 24.408C113.655 24.408 114.287 24.24 114.831 23.904C115.375 23.568 115.799 23.104 116.103 22.512C116.423 21.92 116.583 21.24 116.583 20.472C116.583 19.72 116.423 19.048 116.103 18.456C115.799 17.848 115.375 17.376 114.831 17.04C114.287 16.704 113.655 16.536 112.935 16.536C112.231 16.536 111.599 16.712 111.039 17.064C110.479 17.4 110.039 17.864 109.719 18.456C109.415 19.032 109.263 19.704 109.263 20.472C109.263 21.24 109.415 21.92 109.719 22.512C110.039 23.104 110.479 23.568 111.039 23.904C111.599 24.24 112.231 24.408 112.935 24.408ZM122.652 27V8.832H125.796V27H122.652ZM130.282 32.28C129.93 32.28 129.586 32.248 129.25 32.184C128.914 32.136 128.61 32.04 128.338 31.896V29.28C128.546 29.328 128.794 29.376 129.082 29.424C129.386 29.472 129.666 29.496 129.922 29.496C130.642 29.496 131.162 29.328 131.482 28.992C131.818 28.672 132.114 28.24 132.37 27.696L133.234 25.68L133.186 28.32L127.498 13.944H130.882L134.866 24.552H133.666L137.626 13.944H141.034L135.346 28.32C135.01 29.152 134.602 29.864 134.122 30.456C133.642 31.048 133.082 31.496 132.442 31.8C131.818 32.12 131.098 32.28 130.282 32.28Z" fill="white"/>
<defs>
<filter id="filter0_dd_0_1" x="0" y="0" width="38" height="38" filterUnits="userSpaceOnUse" color-interpolation-filters="sRGB">
<feFlood flood-opacity="0" result="BackgroundImageFix"/>
<feColorMatrix in="SourceAlpha" type="matrix" values="0 0 0 0 0 0 0 0 0 0 0 0 0 0 0 0 0 0 127 0" result="hardAlpha"/>
<feOffset dy="1"/>
<feGaussianBlur stdDeviation="1"/>
<feColorMatrix type="matrix" values="0 0 0 0 0.0627451 0 0 0 0 0.0941176 0 0 0 0 0.156863 0 0 0 0.06 0"/>
<feBlend mode="normal" in2="BackgroundImageFix" result="effect1_dropShadow_0_1"/>
<feColorMatrix in="SourceAlpha" type="matrix" values="0 0 0 0 0 0 0 0 0 0 0 0 0 0 0 0 0 0 127 0" result="hardAlpha"/>
<feOffset dy="1"/>
<feGaussianBlur stdDeviation="1.5"/>
<feColorMatrix type="matrix" values="0 0 0 0 0.0627451 0 0 0 0 0.0941176 0 0 0 0 0.156863 0 0 0 0.1 0"/>
<feBlend mode="normal" in2="effect1_dropShadow_0_1" result="effect2_dropShadow_0_1"/>
<feBlend mode="normal" in="SourceGraphic" in2="effect2_dropShadow_0_1" result="shape"/>
</filter>
<linearGradient id="paint0_linear_0_1" x1="19" y1="2.00001" x2="19" y2="34" gradientUnits="userSpaceOnUse">
<stop stop-color="white"/>
<stop offset="1" stop-color="#D0D5DD"/>
</linearGradient>
<linearGradient id="paint1_linear_0_1" x1="22.2627" y1="8.13281" x2="22.2627" y2="22.3906" gradientUnits="userSpaceOnUse">
<stop stop-color="#00A482"/>
<stop offset="1" stop-color="#79DD83"/>
</linearGradient>
<linearGradient id="paint2_linear_0_1" x1="15.2079" y1="14.4912" x2="15.2079" y2="27.7918" gradientUnits="userSpaceOnUse">
<stop stop-color="#0076C1"/>
<stop offset="0.278696" stop-color="#269ED3"/>
<stop offset="0.74" stop-color="#0B82C6"/>
<stop offset="1" stop-color="#36AFDA"/>
</linearGradient>
</defs>
</svg>
